<svg xmlns="http://www.w3.org/2000/svg" width="88" height="88" viewBox="0 0 88 88"><defs><style>.a{fill:#1e9853;}.b{fill:#efecec;}.c{fill:#fff;}</style></defs><circle class="a" cx="40.307" cy="40.307" r="40.307" transform="translate(3.693 3.693)"/><path class="b" d="M44,88A44,44,0,1,1,88,44,44.05,44.05,0,0,1,44,88ZM44,7.334A36.666,36.666,0,1,0,80.666,44,36.708,36.708,0,0,0,44,7.334Z"/><path class="c" d="M164.109,200.182a3.677,3.677,0,0,1-2.046-.62l-11.079-7.387a3.693,3.693,0,1,1,4.1-6.146l8.318,5.54,16.34-19.609a3.693,3.693,0,0,1,5.675,4.728l-18.466,22.159A3.689,3.689,0,0,1,164.109,200.182Z" transform="translate(-123.804 -141.41)"/></svg>